<svg width="16" height="24" viewBox="0 0 16 24" fill="none" xmlns="http://www.w3.org/2000/svg">
<path d="M8.76172 11.3337V15.0312C9.15499 11.8118 11.8963 9.31723 15.2198 9.31723V16.6968C15.2198 20.294 12.305 23.2088 8.70775 23.2088V21.1076C3.96925 21.0767 0.136818 17.2289 0.136818 12.4865V2.70879C4.89845 2.70879 8.76172 6.56821 8.76172 11.3337Z" fill="#FF4A23"/>
<path d="M7.78311 3.32667L8.29085 3.04763C8.9667 2.6762 9.5221 2.11907 9.89143 1.44207L10.1688 0.933643L10.4462 1.43917C10.8178 2.11642 11.3759 2.67289 12.0542 3.04261L12.5618 3.31929L12.057 3.5961C11.3785 3.96814 10.8212 4.52722 10.4513 5.20685L10.1761 5.71233L9.89774 5.20538C9.52591 4.52826 8.96772 3.97196 8.28935 3.60243L7.78311 3.32667Z" fill="#FF4A23"/>
</svg>
